# xmcd
#
# Track frame offsets:
#	150
#	14949
#	32959
#	58984
#	80926
#	101965
#	123936
#	142661
#	154386
#	169639
#
# Disc length: 2483 seconds
#
# Revision: 0
# Processed by: cddbd v1.4PL0 Copyright (c) Steve Scherf et al.
# Submitted via: dBpowerAMP V4.0
#
DISCID=9109b10a
DTITLE=Eva Cassidy - Imagine
DYEAR=2002
DGENRE=Blues
TTITLE0=It Doesn't Matter Anymore
TTITLE1=Fever
TTITLE2=Who Knows Where The Time Goes?
TTITLE3=You've Changed
TTITLE4=Imagine
TTITLE5=Still Not Ready
TTITLE6=Early Morning Rain
TTITLE7=Tennessee Waltz
TTITLE8=I Can Only Be Me
TTITLE9=Danny Boy
EXTD=
EXTT0=
EXTT1=
EXTT2=
EXTT3=
EXTT4=
EXTT5=
EXTT6=
EXTT7=
EXTT8=
EXTT9=
PLAYORDER=
